<?xml version="1.0" encoding="utf-8"?>
<!-- Generator: Adobe Illustrator 24.3.0, SVG Export Plug-In . SVG Version: 6.00 Build 0)  -->
<svg version="1.1" id="Layer_1" xmlns="http://www.w3.org/2000/svg" xmlns:xlink="http://www.w3.org/1999/xlink" x="0px" y="0px"
	 viewBox="0 0 4800 4800" style="enable-background:new 0 0 4800 4800;" xml:space="preserve">

<rect x="497.67" y="497.67" width="115.291" height="345.877"/>
<rect x="497.67" y="843.548" width="115.291" height="461.17"/>
<rect x="497.67" y="1420.012" width="115.291" height="345.877"/>
<rect x="497.67" y="2803.523" width="115.291" height="230.586"/>
<rect x="497.67" y="3264.695" width="115.291" height="115.293"/>
<rect x="497.67" y="3495.279" width="115.291" height="576.465"/>
<rect x="497.67" y="4071.744" width="115.291" height="230.584"/>
<rect x="612.961" y="497.67" width="115.293" height="115.293"/>
<rect x="612.961" y="1189.425" width="115.293" height="115.293"/>
<rect x="612.961" y="1650.597" width="115.293" height="230.586"/>
<rect x="612.961" y="2111.767" width="115.293" height="345.879"/>
<rect x="612.961" y="2572.939" width="115.293" height="115.293"/>
<rect x="612.961" y="2803.523" width="115.293" height="230.586"/>
<rect x="612.961" y="3149.402" width="115.293" height="115.293"/>
<rect x="612.961" y="3495.279" width="115.293" height="115.293"/>
<rect x="612.961" y="4187.037" width="115.293" height="115.291"/>
<rect x="728.254" y="497.67" width="115.295" height="115.293"/>
<rect x="728.254" y="728.256" width="115.295" height="115.291"/>
<rect x="728.254" y="843.548" width="115.295" height="230.586"/>
<rect x="728.254" y="1189.425" width="115.295" height="115.293"/>
<rect x="728.254" y="1420.012" width="115.295" height="115.293"/>
<rect x="728.254" y="1765.89" width="115.295" height="230.584"/>
<rect x="728.254" y="2111.767" width="115.295" height="115.295"/>
<rect x="728.254" y="2572.939" width="115.295" height="115.293"/>
<rect x="728.254" y="2918.816" width="115.295" height="115.293"/>
<rect x="728.254" y="3149.402" width="115.295" height="115.293"/>
<rect x="728.254" y="3495.279" width="115.295" height="115.293"/>
<rect x="728.254" y="3725.865" width="115.295" height="345.879"/>
<rect x="728.254" y="4187.037" width="115.295" height="115.291"/>
<rect x="843.549" y="497.67" width="115.293" height="115.293"/>
<rect x="843.549" y="728.256" width="115.293" height="115.291"/>
<rect x="843.549" y="843.548" width="115.293" height="230.586"/>
<rect x="843.549" y="1189.425" width="115.293" height="115.293"/>
<rect x="843.549" y="1420.012" width="115.293" height="115.293"/>
<rect x="843.549" y="1996.474" width="115.293" height="115.293"/>
<rect x="843.549" y="2227.062" width="115.293" height="230.584"/>
<rect x="843.549" y="2803.523" width="115.293" height="115.293"/>
<rect x="843.549" y="3495.279" width="115.293" height="115.293"/>
<rect x="843.549" y="3725.865" width="115.293" height="345.879"/>
<rect x="843.549" y="4187.037" width="115.293" height="115.291"/>
<rect x="958.842" y="497.67" width="115.291" height="115.293"/>
<rect x="958.842" y="728.256" width="115.291" height="115.291"/>
<rect x="958.842" y="843.548" width="115.291" height="230.586"/>
<rect x="958.842" y="1189.425" width="115.291" height="115.293"/>
<rect x="958.842" y="1650.597" width="115.291" height="230.586"/>
<rect x="958.842" y="2342.354" width="115.291" height="576.461"/>
<rect x="958.842" y="3034.109" width="115.291" height="115.293"/>
<rect x="958.842" y="3264.695" width="115.291" height="115.293"/>
<rect x="958.842" y="3495.279" width="115.291" height="115.293"/>
<rect x="958.842" y="3725.865" width="115.291" height="345.879"/>
<rect x="958.842" y="4187.037" width="115.291" height="115.291"/>
<rect x="1074.133" y="497.67" width="115.293" height="115.293"/>
<rect x="1074.133" y="1189.425" width="115.293" height="115.293"/>
<rect x="1074.133" y="1420.012" width="115.293" height="115.293"/>
<rect x="1074.133" y="1765.89" width="115.293" height="115.293"/>
<rect x="1074.133" y="1996.474" width="115.293" height="115.293"/>
<rect x="1074.133" y="2227.062" width="115.293" height="230.584"/>
<rect x="1074.133" y="2572.939" width="115.293" height="115.293"/>
<rect x="1074.133" y="2803.523" width="115.293" height="115.293"/>
<rect x="1074.133" y="3034.109" width="115.293" height="230.586"/>
<rect x="1074.133" y="3495.279" width="115.293" height="115.293"/>
<rect x="1074.133" y="4187.037" width="115.293" height="115.291"/>
<rect x="1189.426" y="497.67" width="115.293" height="345.877"/>
<rect x="1189.426" y="843.548" width="115.293" height="461.17"/>
<rect x="1189.426" y="1420.012" width="115.293" height="115.293"/>
<rect x="1189.426" y="1650.597" width="115.293" height="115.293"/>
<rect x="1189.426" y="1881.183" width="115.293" height="115.291"/>
<rect x="1189.426" y="2111.767" width="115.293" height="115.295"/>
<rect x="1189.426" y="2342.354" width="115.293" height="115.291"/>
<rect x="1189.426" y="2572.939" width="115.293" height="115.293"/>
<rect x="1189.426" y="2803.523" width="115.293" height="115.293"/>
<rect x="1189.426" y="3034.109" width="115.293" height="115.293"/>
<rect x="1189.426" y="3264.695" width="115.293" height="115.293"/>
<rect x="1189.426" y="3495.279" width="115.293" height="576.465"/>
<rect x="1189.426" y="4071.744" width="115.293" height="230.584"/>
<rect x="1304.719" y="1420.012" width="115.291" height="115.293"/>
<rect x="1304.719" y="1765.89" width="115.291" height="230.584"/>
<rect x="1304.719" y="2111.767" width="115.291" height="115.295"/>
<rect x="1304.719" y="2572.939" width="115.291" height="115.293"/>
<rect x="1304.719" y="2803.523" width="115.291" height="230.586"/>
<rect x="1420.01" y="497.67" width="115.293" height="230.586"/>
<rect x="1420.01" y="843.548" width="115.293" height="115.293"/>
<rect x="1420.01" y="1189.425" width="115.293" height="230.588"/>
<rect x="1420.01" y="1535.304" width="115.293" height="230.586"/>
<rect x="1420.01" y="2111.767" width="115.293" height="115.295"/>
<rect x="1420.01" y="2457.646" width="115.293" height="115.293"/>
<rect x="1420.01" y="2688.23" width="115.293" height="115.293"/>
<rect x="1420.01" y="2918.816" width="115.293" height="115.293"/>
<rect x="1420.01" y="3149.402" width="115.293" height="115.293"/>
<rect x="1420.01" y="3379.988" width="115.293" height="115.291"/>
<rect x="1420.01" y="3495.279" width="115.293" height="230.586"/>
<rect x="1420.01" y="3841.156" width="115.293" height="230.588"/>
<rect x="1420.01" y="4187.037" width="115.293" height="115.291"/>
<rect x="1535.303" y="728.256" width="115.293" height="115.291"/>
<rect x="1535.303" y="958.841" width="115.293" height="115.293"/>
<rect x="1535.303" y="1535.304" width="115.293" height="115.293"/>
<rect x="1535.303" y="1765.89" width="115.293" height="230.584"/>
<rect x="1535.303" y="2227.062" width="115.293" height="230.584"/>
<rect x="1535.303" y="2572.939" width="115.293" height="115.293"/>
<rect x="1535.303" y="3495.279" width="115.293" height="115.293"/>
<rect x="1535.303" y="3725.865" width="115.293" height="345.879"/>
<rect x="1650.596" y="612.963" width="115.293" height="115.293"/>
<rect x="1650.596" y="1189.425" width="115.293" height="691.758"/>
<rect x="1650.596" y="1996.474" width="115.293" height="230.588"/>
<rect x="1650.596" y="2457.646" width="115.293" height="230.586"/>
<rect x="1650.596" y="2918.816" width="115.293" height="115.293"/>
<rect x="1650.596" y="3034.109" width="115.293" height="115.293"/>
<rect x="1650.596" y="3379.988" width="115.293" height="115.291"/>
<rect x="1650.596" y="3610.572" width="115.293" height="230.584"/>
<rect x="1650.596" y="3956.451" width="115.293" height="115.293"/>
<rect x="1765.889" y="728.256" width="115.293" height="115.291"/>
<rect x="1765.889" y="1420.012" width="115.293" height="115.293"/>
<rect x="1765.889" y="1650.597" width="115.293" height="230.586"/>
<rect x="1765.889" y="2227.062" width="115.293" height="115.293"/>
<rect x="1765.889" y="2918.816" width="115.293" height="115.293"/>
<rect x="1765.889" y="3034.109" width="115.293" height="230.586"/>
<rect x="1765.889" y="3495.279" width="115.293" height="115.293"/>
<rect x="1765.889" y="3841.156" width="115.293" height="230.588"/>
<rect x="1765.889" y="4187.037" width="115.293" height="115.291"/>
<rect x="1881.182" y="612.963" width="115.293" height="230.584"/>
<rect x="1881.182" y="843.548" width="115.293" height="230.586"/>
<rect x="1881.182" y="1189.425" width="115.293" height="576.465"/>
<rect x="1881.182" y="2111.767" width="115.293" height="345.879"/>
<rect x="1881.182" y="2572.939" width="115.293" height="230.584"/>
<rect x="1881.182" y="3034.109" width="115.293" height="115.293"/>
<rect x="1881.182" y="3264.695" width="115.293" height="230.584"/>
<rect x="1881.182" y="3610.572" width="115.293" height="115.293"/>
<rect x="1881.182" y="3841.156" width="115.293" height="115.295"/>
<rect x="1881.182" y="4187.037" width="115.293" height="115.291"/>
<rect x="1996.475" y="728.256" width="115.293" height="115.291"/>
<rect x="1996.475" y="958.841" width="115.293" height="230.584"/>
<rect x="1996.475" y="1535.304" width="115.293" height="230.586"/>
<rect x="1996.475" y="2227.062" width="115.293" height="230.584"/>
<rect x="1996.475" y="2688.23" width="115.293" height="115.293"/>
<rect x="1996.475" y="2918.816" width="115.293" height="115.293"/>
<rect x="1996.475" y="3034.109" width="115.293" height="345.879"/>
<rect x="1996.475" y="3495.279" width="115.293" height="115.293"/>
<rect x="1996.475" y="4187.037" width="115.293" height="115.291"/>
<rect x="2111.767" y="612.963" width="115.293" height="230.584"/>
<rect x="2111.767" y="1189.425" width="115.293" height="115.293"/>
<rect x="2111.767" y="1420.012" width="115.293" height="115.293"/>
<rect x="2111.767" y="1881.183" width="115.293" height="576.463"/>
<rect x="2111.767" y="2688.23" width="115.293" height="345.879"/>
<rect x="2111.767" y="3495.279" width="115.293" height="230.586"/>
<rect x="2111.767" y="3841.156" width="115.293" height="230.588"/>
<rect x="2111.767" y="4187.037" width="115.293" height="115.291"/>
<rect x="2227.06" y="728.256" width="115.293" height="115.291"/>
<rect x="2227.06" y="1074.134" width="115.293" height="115.291"/>
<rect x="2227.06" y="1304.718" width="115.293" height="230.588"/>
<rect x="2227.06" y="1765.89" width="115.293" height="230.584"/>
<rect x="2227.06" y="2227.062" width="115.293" height="461.17"/>
<rect x="2227.06" y="3379.988" width="115.293" height="115.291"/>
<rect x="2227.06" y="3610.572" width="115.293" height="461.172"/>
<rect x="2342.353" y="497.67" width="115.291" height="115.293"/>
<rect x="2342.353" y="958.841" width="115.291" height="576.465"/>
<rect x="2342.353" y="1765.89" width="115.291" height="115.293"/>
<rect x="2342.353" y="2111.767" width="115.291" height="230.588"/>
<rect x="2342.353" y="2572.939" width="115.291" height="461.17"/>
<rect x="2342.353" y="3034.109" width="115.291" height="115.293"/>
<rect x="2342.353" y="3264.695" width="115.291" height="230.584"/>
<rect x="2342.353" y="3495.279" width="115.291" height="115.293"/>
<rect x="2342.353" y="4071.744" width="115.291" height="230.584"/>
<rect x="2457.644" y="843.548" width="115.295" height="115.293"/>
<rect x="2457.644" y="1074.134" width="115.295" height="115.291"/>
<rect x="2457.644" y="1304.718" width="115.295" height="230.588"/>
<rect x="2457.644" y="1650.597" width="115.295" height="115.293"/>
<rect x="2457.644" y="1881.183" width="115.295" height="345.879"/>
<rect x="2457.644" y="2457.646" width="115.295" height="576.463"/>
<rect x="2457.644" y="3034.109" width="115.295" height="115.293"/>
<rect x="2457.644" y="3264.695" width="115.295" height="115.293"/>
<rect x="2457.644" y="4071.744" width="115.295" height="230.584"/>
<rect x="2572.938" y="497.67" width="115.293" height="115.293"/>
<rect x="2572.938" y="728.256" width="115.293" height="115.291"/>
<rect x="2572.938" y="958.841" width="115.293" height="345.877"/>
<rect x="2572.938" y="1420.012" width="115.293" height="345.877"/>
<rect x="2572.938" y="1881.183" width="115.293" height="115.291"/>
<rect x="2572.938" y="2111.767" width="115.293" height="115.295"/>
<rect x="2572.938" y="2342.354" width="115.293" height="115.291"/>
<rect x="2572.938" y="2803.523" width="115.293" height="230.586"/>
<rect x="2572.938" y="3149.402" width="115.293" height="115.293"/>
<rect x="2572.938" y="3379.988" width="115.293" height="115.291"/>
<rect x="2572.938" y="3610.572" width="115.293" height="345.879"/>
<rect x="2572.938" y="4187.037" width="115.293" height="115.291"/>
<rect x="2688.231" y="497.67" width="115.293" height="115.293"/>
<rect x="2688.231" y="958.841" width="115.293" height="230.584"/>
<rect x="2688.231" y="1420.012" width="115.293" height="230.584"/>
<rect x="2688.231" y="1765.89" width="115.293" height="576.465"/>
<rect x="2688.231" y="2803.523" width="115.293" height="230.586"/>
<rect x="2688.231" y="3149.402" width="115.293" height="345.877"/>
<rect x="2688.231" y="3495.279" width="115.293" height="115.293"/>
<rect x="2688.231" y="4187.037" width="115.293" height="115.291"/>
<rect x="2803.524" y="1074.134" width="115.291" height="230.584"/>
<rect x="2803.524" y="1535.304" width="115.291" height="115.293"/>
<rect x="2803.524" y="2342.354" width="115.291" height="230.584"/>
<rect x="2803.524" y="2803.523" width="115.291" height="230.586"/>
<rect x="2803.524" y="3264.695" width="115.291" height="115.293"/>
<rect x="2803.524" y="3495.279" width="115.291" height="461.172"/>
<rect x="2918.816" y="497.67" width="115.293" height="115.293"/>
<rect x="2918.816" y="1420.012" width="115.293" height="115.293"/>
<rect x="2918.816" y="1650.597" width="115.293" height="115.293"/>
<rect x="2918.816" y="2227.062" width="115.293" height="230.584"/>
<rect x="2918.816" y="2803.523" width="115.293" height="115.293"/>
<rect x="2918.816" y="3610.572" width="115.293" height="461.172"/>
<rect x="2918.816" y="4187.037" width="115.293" height="115.291"/>
<rect x="3034.109" y="612.963" width="115.293" height="230.584"/>
<rect x="3034.109" y="1074.134" width="115.293" height="345.879"/>
<rect x="3034.109" y="1535.304" width="115.293" height="230.586"/>
<rect x="3034.109" y="1881.183" width="115.293" height="230.584"/>
<rect x="3034.109" y="2342.354" width="115.293" height="230.584"/>
<rect x="3034.109" y="3149.402" width="115.293" height="230.586"/>
<rect x="3034.109" y="3610.572" width="115.293" height="461.172"/>
<rect x="3149.402" y="497.67" width="115.294" height="230.586"/>
<rect x="3149.402" y="1535.304" width="115.294" height="230.586"/>
<rect x="3149.402" y="2342.354" width="115.294" height="230.584"/>
<rect x="3149.402" y="2918.816" width="115.294" height="115.293"/>
<rect x="3149.402" y="3034.109" width="115.294" height="115.293"/>
<rect x="3149.402" y="3379.988" width="115.294" height="115.291"/>
<rect x="3149.402" y="3495.279" width="115.294" height="576.465"/>
<rect x="3149.402" y="4187.037" width="115.294" height="115.291"/>
<rect x="3264.694" y="612.963" width="115.293" height="230.584"/>
<rect x="3264.694" y="958.841" width="115.293" height="345.877"/>
<rect x="3264.694" y="1650.597" width="115.293" height="230.586"/>
<rect x="3264.694" y="1996.474" width="115.293" height="230.588"/>
<rect x="3264.694" y="2342.354" width="115.293" height="230.584"/>
<rect x="3264.694" y="2688.23" width="115.293" height="115.293"/>
<rect x="3264.694" y="3149.402" width="115.293" height="345.877"/>
<rect x="3264.694" y="3495.279" width="115.293" height="461.172"/>
<rect x="3264.694" y="4071.744" width="115.293" height="115.293"/>
<rect x="3379.987" y="1881.183" width="115.293" height="230.584"/>
<rect x="3379.987" y="2227.062" width="115.293" height="230.584"/>
<rect x="3379.987" y="2572.939" width="115.293" height="115.293"/>
<rect x="3379.987" y="2803.523" width="115.293" height="115.293"/>
<rect x="3379.987" y="3149.402" width="115.293" height="230.586"/>
<rect x="3379.987" y="3725.865" width="115.293" height="115.291"/>
<rect x="3379.987" y="4071.744" width="115.293" height="115.293"/>
<rect x="3495.28" y="497.67" width="115.293" height="345.877"/>
<rect x="3495.28" y="843.548" width="115.293" height="461.17"/>
<rect x="3495.28" y="1420.012" width="115.293" height="461.17"/>
<rect x="3495.28" y="2111.767" width="115.293" height="461.172"/>
<rect x="3495.28" y="2688.23" width="115.293" height="115.293"/>
<rect x="3495.28" y="2918.816" width="115.293" height="115.293"/>
<rect x="3495.28" y="3034.109" width="115.293" height="345.879"/>
<rect x="3495.28" y="3495.279" width="115.293" height="115.293"/>
<rect x="3495.28" y="3725.865" width="115.293" height="115.291"/>
<rect x="3495.28" y="3956.451" width="115.293" height="115.293"/>
<rect x="3610.573" y="497.67" width="115.292" height="115.293"/>
<rect x="3610.573" y="1189.425" width="115.292" height="115.293"/>
<rect x="3610.573" y="1535.304" width="115.292" height="691.758"/>
<rect x="3610.573" y="2572.939" width="115.292" height="115.293"/>
<rect x="3610.573" y="3264.695" width="115.292" height="115.293"/>
<rect x="3610.573" y="3725.865" width="115.292" height="345.879"/>
<rect x="3610.573" y="4071.744" width="115.292" height="115.293"/>
<rect x="3725.865" y="497.67" width="115.293" height="115.293"/>
<rect x="3725.865" y="728.256" width="115.293" height="115.291"/>
<rect x="3725.865" y="843.548" width="115.293" height="230.586"/>
<rect x="3725.865" y="1189.425" width="115.293" height="115.293"/>
<rect x="3725.865" y="1650.597" width="115.293" height="115.293"/>
<rect x="3725.865" y="1881.183" width="115.293" height="115.291"/>
<rect x="3725.865" y="2111.767" width="115.293" height="115.295"/>
<rect x="3725.865" y="2342.354" width="115.293" height="461.168"/>
<rect x="3725.865" y="3034.109" width="115.293" height="461.17"/>
<rect x="3725.865" y="3495.279" width="115.293" height="345.877"/>
<rect x="3725.865" y="4071.744" width="115.293" height="230.584"/>
<rect x="3841.158" y="497.67" width="115.292" height="115.293"/>
<rect x="3841.158" y="728.256" width="115.292" height="115.291"/>
<rect x="3841.158" y="843.548" width="115.292" height="230.586"/>
<rect x="3841.158" y="1189.425" width="115.292" height="115.293"/>
<rect x="3841.158" y="1420.012" width="115.292" height="576.461"/>
<rect x="3841.158" y="2111.767" width="115.292" height="461.172"/>
<rect x="3841.158" y="2803.523" width="115.292" height="230.586"/>
<rect x="3841.158" y="3034.109" width="115.292" height="230.586"/>
<rect x="3841.158" y="3379.988" width="115.292" height="115.291"/>
<rect x="3841.158" y="3610.572" width="115.292" height="115.293"/>
<rect x="3841.158" y="3956.451" width="115.292" height="115.293"/>
<rect x="3841.158" y="4187.037" width="115.292" height="115.291"/>
<rect x="3956.451" y="497.67" width="115.292" height="115.293"/>
<rect x="3956.451" y="728.256" width="115.292" height="115.291"/>
<rect x="3956.451" y="843.548" width="115.292" height="230.586"/>
<rect x="3956.451" y="1189.425" width="115.292" height="115.293"/>
<rect x="3956.451" y="1535.304" width="115.292" height="115.293"/>
<rect x="3956.451" y="2227.062" width="115.292" height="230.584"/>
<rect x="3956.451" y="2572.939" width="115.292" height="115.293"/>
<rect x="3956.451" y="2803.523" width="115.292" height="230.586"/>
<rect x="3956.451" y="3610.572" width="115.292" height="461.172"/>
<rect x="3956.451" y="4187.037" width="115.292" height="115.291"/>
<rect x="4071.743" y="497.67" width="115.293" height="115.293"/>
<rect x="4071.743" y="1189.425" width="115.293" height="115.293"/>
<rect x="4071.743" y="1420.012" width="115.293" height="115.293"/>
<rect x="4071.743" y="1650.597" width="115.293" height="230.586"/>
<rect x="4071.743" y="1996.474" width="115.293" height="115.293"/>
<rect x="4071.743" y="2572.939" width="115.293" height="230.584"/>
<rect x="4071.743" y="3034.109" width="115.293" height="115.293"/>
<rect x="4071.743" y="3495.279" width="115.293" height="345.877"/>
<rect x="4187.036" y="497.67" width="115.292" height="345.877"/>
<rect x="4187.036" y="843.548" width="115.292" height="461.17"/>
<rect x="4187.036" y="1420.012" width="115.292" height="461.17"/>
<rect x="4187.036" y="2457.646" width="115.292" height="115.293"/>
<rect x="4187.036" y="2803.523" width="115.292" height="230.586"/>
<rect x="4187.036" y="3034.109" width="115.292" height="345.879"/>
<rect x="4187.036" y="3610.572" width="115.292" height="115.293"/>
<rect x="4187.036" y="3841.156" width="115.292" height="115.295"/>
<rect x="4187.036" y="4071.744" width="115.292" height="115.293"/>

</svg>
