<svg xmlns="http://www.w3.org/2000/svg" xmlns:xlink="http://www.w3.org/1999/xlink" id="Layer_1" x="0" y="0" version="1.1" viewBox="0 0 4800 4800" xml:space="preserve" style="enable-background:new 0 0 4800 4800"><rect width="4800" height="4800" x="36.5" y="36.5" fill="#fff" class="st0"/><rect width="115.291" height="345.877" x="497.67" y="497.67"/><rect width="115.291" height="461.17" x="497.67" y="843.548"/><rect width="115.291" height="345.877" x="497.67" y="1420.012"/><rect width="115.291" height="230.586" x="497.67" y="2803.523"/><rect width="115.291" height="115.293" x="497.67" y="3264.695"/><rect width="115.291" height="576.465" x="497.67" y="3495.279"/><rect width="115.291" height="230.584" x="497.67" y="4071.744"/><rect width="115.293" height="115.293" x="612.961" y="497.67"/><rect width="115.293" height="115.293" x="612.961" y="1189.425"/><rect width="115.293" height="230.586" x="612.961" y="1650.597"/><rect width="115.293" height="345.879" x="612.961" y="2111.767"/><rect width="115.293" height="115.293" x="612.961" y="2572.939"/><rect width="115.293" height="230.586" x="612.961" y="2803.523"/><rect width="115.293" height="115.293" x="612.961" y="3149.402"/><rect width="115.293" height="115.293" x="612.961" y="3495.279"/><rect width="115.293" height="115.291" x="612.961" y="4187.037"/><rect width="115.295" height="115.293" x="728.254" y="497.67"/><rect width="115.295" height="115.291" x="728.254" y="728.256"/><rect width="115.295" height="230.586" x="728.254" y="843.548"/><rect width="115.295" height="115.293" x="728.254" y="1189.425"/><rect width="115.295" height="115.293" x="728.254" y="1420.012"/><rect width="115.295" height="230.584" x="728.254" y="1765.89"/><rect width="115.295" height="115.295" x="728.254" y="2111.767"/><rect width="115.295" height="115.293" x="728.254" y="2572.939"/><rect width="115.295" height="115.293" x="728.254" y="2918.816"/><rect width="115.295" height="115.293" x="728.254" y="3149.402"/><rect width="115.295" height="115.293" x="728.254" y="3495.279"/><rect width="115.295" height="345.879" x="728.254" y="3725.865"/><rect width="115.295" height="115.291" x="728.254" y="4187.037"/><rect width="115.293" height="115.293" x="843.549" y="497.67"/><rect width="115.293" height="115.291" x="843.549" y="728.256"/><rect width="115.293" height="230.586" x="843.549" y="843.548"/><rect width="115.293" height="115.293" x="843.549" y="1189.425"/><rect width="115.293" height="115.293" x="843.549" y="1420.012"/><rect width="115.293" height="115.293" x="843.549" y="1996.474"/><rect width="115.293" height="230.584" x="843.549" y="2227.062"/><rect width="115.293" height="115.293" x="843.549" y="2803.523"/><rect width="115.293" height="115.293" x="843.549" y="3495.279"/><rect width="115.293" height="345.879" x="843.549" y="3725.865"/><rect width="115.293" height="115.291" x="843.549" y="4187.037"/><rect width="115.291" height="115.293" x="958.842" y="497.67"/><rect width="115.291" height="115.291" x="958.842" y="728.256"/><rect width="115.291" height="230.586" x="958.842" y="843.548"/><rect width="115.291" height="115.293" x="958.842" y="1189.425"/><rect width="115.291" height="230.586" x="958.842" y="1650.597"/><rect width="115.291" height="576.461" x="958.842" y="2342.354"/><rect width="115.291" height="115.293" x="958.842" y="3034.109"/><rect width="115.291" height="115.293" x="958.842" y="3264.695"/><rect width="115.291" height="115.293" x="958.842" y="3495.279"/><rect width="115.291" height="345.879" x="958.842" y="3725.865"/><rect width="115.291" height="115.291" x="958.842" y="4187.037"/><rect width="115.293" height="115.293" x="1074.133" y="497.67"/><rect width="115.293" height="115.293" x="1074.133" y="1189.425"/><rect width="115.293" height="115.293" x="1074.133" y="1420.012"/><rect width="115.293" height="115.293" x="1074.133" y="1765.89"/><rect width="115.293" height="115.293" x="1074.133" y="1996.474"/><rect width="115.293" height="230.584" x="1074.133" y="2227.062"/><rect width="115.293" height="115.293" x="1074.133" y="2572.939"/><rect width="115.293" height="115.293" x="1074.133" y="2803.523"/><rect width="115.293" height="230.586" x="1074.133" y="3034.109"/><rect width="115.293" height="115.293" x="1074.133" y="3495.279"/><rect width="115.293" height="115.291" x="1074.133" y="4187.037"/><rect width="115.293" height="345.877" x="1189.426" y="497.67"/><rect width="115.293" height="461.17" x="1189.426" y="843.548"/><rect width="115.293" height="115.293" x="1189.426" y="1420.012"/><rect width="115.293" height="115.293" x="1189.426" y="1650.597"/><rect width="115.293" height="115.291" x="1189.426" y="1881.183"/><rect width="115.293" height="115.295" x="1189.426" y="2111.767"/><rect width="115.293" height="115.291" x="1189.426" y="2342.354"/><rect width="115.293" height="115.293" x="1189.426" y="2572.939"/><rect width="115.293" height="115.293" x="1189.426" y="2803.523"/><rect width="115.293" height="115.293" x="1189.426" y="3034.109"/><rect width="115.293" height="115.293" x="1189.426" y="3264.695"/><rect width="115.293" height="576.465" x="1189.426" y="3495.279"/><rect width="115.293" height="230.584" x="1189.426" y="4071.744"/><rect width="115.291" height="115.293" x="1304.719" y="1420.012"/><rect width="115.291" height="230.584" x="1304.719" y="1765.89"/><rect width="115.291" height="115.295" x="1304.719" y="2111.767"/><rect width="115.291" height="115.293" x="1304.719" y="2572.939"/><rect width="115.291" height="230.586" x="1304.719" y="2803.523"/><rect width="115.293" height="230.586" x="1420.01" y="497.67"/><rect width="115.293" height="115.293" x="1420.01" y="843.548"/><rect width="115.293" height="230.588" x="1420.01" y="1189.425"/><rect width="115.293" height="230.586" x="1420.01" y="1535.304"/><rect width="115.293" height="115.295" x="1420.01" y="2111.767"/><rect width="115.293" height="115.293" x="1420.01" y="2457.646"/><rect width="115.293" height="115.293" x="1420.01" y="2688.23"/><rect width="115.293" height="115.293" x="1420.01" y="2918.816"/><rect width="115.293" height="115.293" x="1420.01" y="3149.402"/><rect width="115.293" height="115.291" x="1420.01" y="3379.988"/><rect width="115.293" height="230.586" x="1420.01" y="3495.279"/><rect width="115.293" height="230.588" x="1420.01" y="3841.156"/><rect width="115.293" height="115.291" x="1420.01" y="4187.037"/><rect width="115.293" height="115.291" x="1535.303" y="728.256"/><rect width="115.293" height="115.293" x="1535.303" y="958.841"/><rect width="115.293" height="115.293" x="1535.303" y="1535.304"/><rect width="115.293" height="230.584" x="1535.303" y="1765.89"/><rect width="115.293" height="230.584" x="1535.303" y="2227.062"/><rect width="115.293" height="115.293" x="1535.303" y="2572.939"/><rect width="115.293" height="115.293" x="1535.303" y="3495.279"/><rect width="115.293" height="345.879" x="1535.303" y="3725.865"/><rect width="115.293" height="115.293" x="1650.596" y="612.963"/><rect width="115.293" height="691.758" x="1650.596" y="1189.425"/><rect width="115.293" height="230.588" x="1650.596" y="1996.474"/><rect width="115.293" height="230.586" x="1650.596" y="2457.646"/><rect width="115.293" height="115.293" x="1650.596" y="2918.816"/><rect width="115.293" height="115.293" x="1650.596" y="3034.109"/><rect width="115.293" height="115.291" x="1650.596" y="3379.988"/><rect width="115.293" height="230.584" x="1650.596" y="3610.572"/><rect width="115.293" height="115.293" x="1650.596" y="3956.451"/><rect width="115.293" height="115.291" x="1765.889" y="728.256"/><rect width="115.293" height="115.293" x="1765.889" y="1420.012"/><rect width="115.293" height="230.586" x="1765.889" y="1650.597"/><rect width="115.293" height="115.293" x="1765.889" y="2227.062"/><rect width="115.293" height="115.293" x="1765.889" y="2918.816"/><rect width="115.293" height="230.586" x="1765.889" y="3034.109"/><rect width="115.293" height="115.293" x="1765.889" y="3495.279"/><rect width="115.293" height="230.588" x="1765.889" y="3841.156"/><rect width="115.293" height="115.291" x="1765.889" y="4187.037"/><rect width="115.293" height="230.584" x="1881.182" y="612.963"/><rect width="115.293" height="230.586" x="1881.182" y="843.548"/><rect width="115.293" height="576.465" x="1881.182" y="1189.425"/><rect width="115.293" height="345.879" x="1881.182" y="2111.767"/><rect width="115.293" height="230.584" x="1881.182" y="2572.939"/><rect width="115.293" height="115.293" x="1881.182" y="3034.109"/><rect width="115.293" height="230.584" x="1881.182" y="3264.695"/><rect width="115.293" height="115.293" x="1881.182" y="3610.572"/><rect width="115.293" height="115.295" x="1881.182" y="3841.156"/><rect width="115.293" height="115.291" x="1881.182" y="4187.037"/><rect width="115.293" height="115.291" x="1996.475" y="728.256"/><rect width="115.293" height="230.584" x="1996.475" y="958.841"/><rect width="115.293" height="230.586" x="1996.475" y="1535.304"/><rect width="115.293" height="230.584" x="1996.475" y="2227.062"/><rect width="115.293" height="115.293" x="1996.475" y="2688.23"/><rect width="115.293" height="115.293" x="1996.475" y="2918.816"/><rect width="115.293" height="345.879" x="1996.475" y="3034.109"/><rect width="115.293" height="115.293" x="1996.475" y="3495.279"/><rect width="115.293" height="115.291" x="1996.475" y="4187.037"/><rect width="115.293" height="230.584" x="2111.767" y="612.963"/><rect width="115.293" height="115.293" x="2111.767" y="1189.425"/><rect width="115.293" height="115.293" x="2111.767" y="1420.012"/><rect width="115.293" height="576.463" x="2111.767" y="1881.183"/><rect width="115.293" height="345.879" x="2111.767" y="2688.23"/><rect width="115.293" height="230.586" x="2111.767" y="3495.279"/><rect width="115.293" height="230.588" x="2111.767" y="3841.156"/><rect width="115.293" height="115.291" x="2111.767" y="4187.037"/><rect width="115.293" height="115.291" x="2227.06" y="728.256"/><rect width="115.293" height="115.291" x="2227.06" y="1074.134"/><rect width="115.293" height="230.588" x="2227.06" y="1304.718"/><rect width="115.293" height="230.584" x="2227.06" y="1765.89"/><rect width="115.293" height="461.17" x="2227.06" y="2227.062"/><rect width="115.293" height="115.291" x="2227.06" y="3379.988"/><rect width="115.293" height="461.172" x="2227.06" y="3610.572"/><rect width="115.291" height="115.293" x="2342.353" y="497.67"/><rect width="115.291" height="576.465" x="2342.353" y="958.841"/><rect width="115.291" height="115.293" x="2342.353" y="1765.89"/><rect width="115.291" height="230.588" x="2342.353" y="2111.767"/><rect width="115.291" height="461.17" x="2342.353" y="2572.939"/><rect width="115.291" height="115.293" x="2342.353" y="3034.109"/><rect width="115.291" height="230.584" x="2342.353" y="3264.695"/><rect width="115.291" height="115.293" x="2342.353" y="3495.279"/><rect width="115.291" height="230.584" x="2342.353" y="4071.744"/><rect width="115.295" height="115.293" x="2457.644" y="843.548"/><rect width="115.295" height="115.291" x="2457.644" y="1074.134"/><rect width="115.295" height="230.588" x="2457.644" y="1304.718"/><rect width="115.295" height="115.293" x="2457.644" y="1650.597"/><rect width="115.295" height="345.879" x="2457.644" y="1881.183"/><rect width="115.295" height="576.463" x="2457.644" y="2457.646"/><rect width="115.295" height="115.293" x="2457.644" y="3034.109"/><rect width="115.295" height="115.293" x="2457.644" y="3264.695"/><rect width="115.295" height="230.584" x="2457.644" y="4071.744"/><rect width="115.293" height="115.293" x="2572.938" y="497.67"/><rect width="115.293" height="115.291" x="2572.938" y="728.256"/><rect width="115.293" height="345.877" x="2572.938" y="958.841"/><rect width="115.293" height="345.877" x="2572.938" y="1420.012"/><rect width="115.293" height="115.291" x="2572.938" y="1881.183"/><rect width="115.293" height="115.295" x="2572.938" y="2111.767"/><rect width="115.293" height="115.291" x="2572.938" y="2342.354"/><rect width="115.293" height="230.586" x="2572.938" y="2803.523"/><rect width="115.293" height="115.293" x="2572.938" y="3149.402"/><rect width="115.293" height="115.291" x="2572.938" y="3379.988"/><rect width="115.293" height="345.879" x="2572.938" y="3610.572"/><rect width="115.293" height="115.291" x="2572.938" y="4187.037"/><rect width="115.293" height="115.293" x="2688.231" y="497.67"/><rect width="115.293" height="230.584" x="2688.231" y="958.841"/><rect width="115.293" height="230.584" x="2688.231" y="1420.012"/><rect width="115.293" height="576.465" x="2688.231" y="1765.89"/><rect width="115.293" height="230.586" x="2688.231" y="2803.523"/><rect width="115.293" height="345.877" x="2688.231" y="3149.402"/><rect width="115.293" height="115.293" x="2688.231" y="3495.279"/><rect width="115.293" height="115.291" x="2688.231" y="4187.037"/><rect width="115.291" height="230.584" x="2803.524" y="1074.134"/><rect width="115.291" height="115.293" x="2803.524" y="1535.304"/><rect width="115.291" height="230.584" x="2803.524" y="2342.354"/><rect width="115.291" height="230.586" x="2803.524" y="2803.523"/><rect width="115.291" height="115.293" x="2803.524" y="3264.695"/><rect width="115.291" height="461.172" x="2803.524" y="3495.279"/><rect width="115.293" height="115.293" x="2918.816" y="497.67"/><rect width="115.293" height="115.293" x="2918.816" y="1420.012"/><rect width="115.293" height="115.293" x="2918.816" y="1650.597"/><rect width="115.293" height="230.584" x="2918.816" y="2227.062"/><rect width="115.293" height="115.293" x="2918.816" y="2803.523"/><rect width="115.293" height="461.172" x="2918.816" y="3610.572"/><rect width="115.293" height="115.291" x="2918.816" y="4187.037"/><rect width="115.293" height="230.584" x="3034.109" y="612.963"/><rect width="115.293" height="345.879" x="3034.109" y="1074.134"/><rect width="115.293" height="230.586" x="3034.109" y="1535.304"/><rect width="115.293" height="230.584" x="3034.109" y="1881.183"/><rect width="115.293" height="230.584" x="3034.109" y="2342.354"/><rect width="115.293" height="230.586" x="3034.109" y="3149.402"/><rect width="115.293" height="461.172" x="3034.109" y="3610.572"/><rect width="115.294" height="230.586" x="3149.402" y="497.67"/><rect width="115.294" height="230.586" x="3149.402" y="1535.304"/><rect width="115.294" height="230.584" x="3149.402" y="2342.354"/><rect width="115.294" height="115.293" x="3149.402" y="2918.816"/><rect width="115.294" height="115.293" x="3149.402" y="3034.109"/><rect width="115.294" height="115.291" x="3149.402" y="3379.988"/><rect width="115.294" height="576.465" x="3149.402" y="3495.279"/><rect width="115.294" height="115.291" x="3149.402" y="4187.037"/><rect width="115.293" height="230.584" x="3264.694" y="612.963"/><rect width="115.293" height="345.877" x="3264.694" y="958.841"/><rect width="115.293" height="230.586" x="3264.694" y="1650.597"/><rect width="115.293" height="230.588" x="3264.694" y="1996.474"/><rect width="115.293" height="230.584" x="3264.694" y="2342.354"/><rect width="115.293" height="115.293" x="3264.694" y="2688.23"/><rect width="115.293" height="345.877" x="3264.694" y="3149.402"/><rect width="115.293" height="461.172" x="3264.694" y="3495.279"/><rect width="115.293" height="115.293" x="3264.694" y="4071.744"/><rect width="115.293" height="230.584" x="3379.987" y="1881.183"/><rect width="115.293" height="230.584" x="3379.987" y="2227.062"/><rect width="115.293" height="115.293" x="3379.987" y="2572.939"/><rect width="115.293" height="115.293" x="3379.987" y="2803.523"/><rect width="115.293" height="230.586" x="3379.987" y="3149.402"/><rect width="115.293" height="115.291" x="3379.987" y="3725.865"/><rect width="115.293" height="115.293" x="3379.987" y="4071.744"/><rect width="115.293" height="345.877" x="3495.28" y="497.67"/><rect width="115.293" height="461.17" x="3495.28" y="843.548"/><rect width="115.293" height="461.17" x="3495.28" y="1420.012"/><rect width="115.293" height="461.172" x="3495.28" y="2111.767"/><rect width="115.293" height="115.293" x="3495.28" y="2688.23"/><rect width="115.293" height="115.293" x="3495.28" y="2918.816"/><rect width="115.293" height="345.879" x="3495.28" y="3034.109"/><rect width="115.293" height="115.293" x="3495.28" y="3495.279"/><rect width="115.293" height="115.291" x="3495.28" y="3725.865"/><rect width="115.293" height="115.293" x="3495.28" y="3956.451"/><rect width="115.292" height="115.293" x="3610.573" y="497.67"/><rect width="115.292" height="115.293" x="3610.573" y="1189.425"/><rect width="115.292" height="691.758" x="3610.573" y="1535.304"/><rect width="115.292" height="115.293" x="3610.573" y="2572.939"/><rect width="115.292" height="115.293" x="3610.573" y="3264.695"/><rect width="115.292" height="345.879" x="3610.573" y="3725.865"/><rect width="115.292" height="115.293" x="3610.573" y="4071.744"/><rect width="115.293" height="115.293" x="3725.865" y="497.67"/><rect width="115.293" height="115.291" x="3725.865" y="728.256"/><rect width="115.293" height="230.586" x="3725.865" y="843.548"/><rect width="115.293" height="115.293" x="3725.865" y="1189.425"/><rect width="115.293" height="115.293" x="3725.865" y="1650.597"/><rect width="115.293" height="115.291" x="3725.865" y="1881.183"/><rect width="115.293" height="115.295" x="3725.865" y="2111.767"/><rect width="115.293" height="461.168" x="3725.865" y="2342.354"/><rect width="115.293" height="461.17" x="3725.865" y="3034.109"/><rect width="115.293" height="345.877" x="3725.865" y="3495.279"/><rect width="115.293" height="230.584" x="3725.865" y="4071.744"/><rect width="115.292" height="115.293" x="3841.158" y="497.67"/><rect width="115.292" height="115.291" x="3841.158" y="728.256"/><rect width="115.292" height="230.586" x="3841.158" y="843.548"/><rect width="115.292" height="115.293" x="3841.158" y="1189.425"/><rect width="115.292" height="576.461" x="3841.158" y="1420.012"/><rect width="115.292" height="461.172" x="3841.158" y="2111.767"/><rect width="115.292" height="230.586" x="3841.158" y="2803.523"/><rect width="115.292" height="230.586" x="3841.158" y="3034.109"/><rect width="115.292" height="115.291" x="3841.158" y="3379.988"/><rect width="115.292" height="115.293" x="3841.158" y="3610.572"/><rect width="115.292" height="115.293" x="3841.158" y="3956.451"/><rect width="115.292" height="115.291" x="3841.158" y="4187.037"/><rect width="115.292" height="115.293" x="3956.451" y="497.67"/><rect width="115.292" height="115.291" x="3956.451" y="728.256"/><rect width="115.292" height="230.586" x="3956.451" y="843.548"/><rect width="115.292" height="115.293" x="3956.451" y="1189.425"/><rect width="115.292" height="115.293" x="3956.451" y="1535.304"/><rect width="115.292" height="230.584" x="3956.451" y="2227.062"/><rect width="115.292" height="115.293" x="3956.451" y="2572.939"/><rect width="115.292" height="230.586" x="3956.451" y="2803.523"/><rect width="115.292" height="461.172" x="3956.451" y="3610.572"/><rect width="115.292" height="115.291" x="3956.451" y="4187.037"/><rect width="115.293" height="115.293" x="4071.743" y="497.67"/><rect width="115.293" height="115.293" x="4071.743" y="1189.425"/><rect width="115.293" height="115.293" x="4071.743" y="1420.012"/><rect width="115.293" height="230.586" x="4071.743" y="1650.597"/><rect width="115.293" height="115.293" x="4071.743" y="1996.474"/><rect width="115.293" height="230.584" x="4071.743" y="2572.939"/><rect width="115.293" height="115.293" x="4071.743" y="3034.109"/><rect width="115.293" height="345.877" x="4071.743" y="3495.279"/><rect width="115.292" height="345.877" x="4187.036" y="497.67"/><rect width="115.292" height="461.17" x="4187.036" y="843.548"/><rect width="115.292" height="461.17" x="4187.036" y="1420.012"/><rect width="115.292" height="115.293" x="4187.036" y="2457.646"/><rect width="115.292" height="230.586" x="4187.036" y="2803.523"/><rect width="115.292" height="345.879" x="4187.036" y="3034.109"/><rect width="115.292" height="115.293" x="4187.036" y="3610.572"/><rect width="115.292" height="115.295" x="4187.036" y="3841.156"/><rect width="115.292" height="115.293" x="4187.036" y="4071.744"/></svg>